<svg version="1.1" id="Layer_2" xmlns="http://www.w3.org/2000/svg" xmlns:xlink="http://www.w3.org/1999/xlink" x="0px" y="0px"
	 width="200px" height="200px" viewBox="0 0 200 200" enable-background="new 0 0 200 200" xml:space="preserve">
<rect fill="#FFFFFF" width="200" height="200"/>
<g opacity="0.39">
	<circle fill="#A39161" cx="4031.176" cy="1141.872" r="9"/>
	<circle fill="#A39161" cx="4013.176" cy="1123.872" r="9"/>
	<circle fill="#A39161" cx="4013.176" cy="1106.539" r="9"/>
	<circle fill="#A39161" cx="4012.509" cy="1141.872" r="9"/>
	<circle fill="#A39161" cx="3993.843" cy="1141.872" r="9"/>
</g>
<g>
	<path fill="#A39161" d="M93.482,119.997c-0.475-0.361-1.044-0.393-1.54-0.393h-0.169v4.055h0.169c0.523,0,1.068-0.049,1.536-0.41
		c0.461-0.35,0.735-0.951,0.735-1.613C94.214,120.958,93.936,120.335,93.482,119.997z"/>
	<path fill="#A39161" d="M33.541,106.126c5.202,0,9.287-4.168,9.287-9.553c0-5.398-4.085-9.557-9.287-9.557
		c-5.215,0-9.275,4.159-9.275,9.557C24.266,101.958,28.326,106.126,33.541,106.126z"/>
	<path fill="#A39161" d="M55.783,119.604h-0.076v1.502h0.055c0.692,0,1.046-0.262,1.046-0.775S56.507,119.604,55.783,119.604z"/>
	<path fill="#A39161" d="M96.186,87.016c-5.199,0-9.285,4.159-9.285,9.557c0,5.385,4.086,9.553,9.285,9.553
		c5.213,0,9.279-4.168,9.279-9.553C105.465,91.175,101.398,87.016,96.186,87.016z"/>
	<path fill="#A39161" d="M64.86,87.016c-5.199,0-9.266,4.159-9.266,9.557c0,5.385,4.066,9.553,9.266,9.553
		c5.212,0,9.29-4.168,9.29-9.553C74.15,91.175,70.072,87.016,64.86,87.016z"/>
	<path fill="#A39161" d="M138.564,87.016c-5.199,0-9.274,4.159-9.274,9.557c0,5.385,4.075,9.553,9.274,9.553
		c5.214,0,9.278-4.168,9.278-9.553C147.843,91.175,143.778,87.016,138.564,87.016z"/>
	<path fill="#A39161" d="M0,0.005v199.99h200V0.005H0z M159.025,95.447c-0.011-3.186,0.907-6.271,4.658-8.529
		c1.087-0.654,3.017-1.204,4.577-1.162c1.564-0.042,3.502,0.508,4.581,1.162c3.748,2.259,4.676,5.344,4.662,8.529v12.302h-1.719
		v-12.12c0-3.12-1.08-5.74-3.825-7.313c-0.936-0.552-2.612-0.907-3.699-0.917c-1.086,0.011-2.76,0.366-3.691,0.917
		c-2.738,1.573-3.835,4.193-3.835,7.313v12.12h-1.709V95.447z M33.527,85.421c6.066,0,10.995,4.978,10.995,11.162
		c0,6.205-4.929,11.183-10.995,11.183c-6.056,0-10.993-4.979-10.993-11.183C22.534,90.399,27.472,85.421,33.527,85.421z
		 M49.17,122.423H22.956v-1.531H49.17V122.423z M177.561,122.423h-26.213v-1.531h26.213V122.423z M57.306,125.069l-1.599-2.293
		v2.293h-1.492v-6.893h1.397c0.424,0,1.206,0,1.834,0.43c0.773,0.512,0.857,1.367,0.857,1.705c0,0.877-0.473,1.588-1.257,1.918
		l2.085,2.84H57.306z M68.541,119.604h-2.532v1.02h2.471v1.412h-2.471v1.623h2.532v1.41h-4.034v-6.893h4.034V119.604z
		 M64.86,107.767c-5.542,0-10.134-4.158-10.888-9.608c-0.062-0.514-0.097-1.982-0.086-2.201V75.581h1.67v15.061
		c1.949-3.139,5.389-5.221,9.304-5.221c6.064,0,11.002,4.978,11.002,11.162C75.862,102.788,70.925,107.767,64.86,107.767z
		 M76.128,125.2c-0.697,0-1.274-0.246-1.701-0.736c-0.345-0.4-0.54-0.863-0.593-1.379l-0.026-0.227l1.479-0.324l0.018,0.299
		c0.014,0.252,0.102,0.514,0.22,0.662c0.158,0.207,0.327,0.287,0.619,0.287c0.598,0,0.815-0.422,0.815-0.813
		c0-0.465-0.369-0.688-0.769-0.859l-0.606-0.26c-0.631-0.273-1.471-0.756-1.471-1.85c0-1.111,0.917-1.939,2.125-1.939
		c0.62,0,1.09,0.16,1.457,0.498c0.132,0.113,0.341,0.334,0.547,0.717l0.114,0.211l-1.25,0.736l-0.114-0.271
		c-0.048-0.115-0.118-0.215-0.23-0.32c-0.119-0.111-0.253-0.158-0.503-0.158c-0.144,0-0.636,0.043-0.636,0.504
		c0,0.143,0.053,0.369,0.521,0.559l0.629,0.242c0.426,0.168,1.683,0.688,1.683,2.119C78.454,124.235,77.475,125.2,76.128,125.2z
		 M85.146,125.073h-1.497v-6.889h1.497V125.073z M94.333,124.423c-0.773,0.541-1.516,0.643-2.468,0.643H90.29v-6.889h1.586
		c1.033,0,1.778,0.113,2.527,0.682c1.16,0.852,1.336,2.1,1.336,2.777C95.739,122.78,95.24,123.776,94.333,124.423z M105.388,119.604
		h-2.56v1.02h2.475v1.412h-2.475v1.623h2.56v1.41h-4.052v-6.893h4.052V119.604z M96.175,107.767
		c-6.054,0-10.987-4.979-10.987-11.183c0-6.184,4.934-11.162,10.987-11.162c6.073,0,11.006,4.978,11.006,11.162
		C107.181,102.788,102.248,107.767,96.175,107.767z M116.563,125.503l-4.602-4.314v3.881h-1.498v-7.352l3.867,3.613
		c0.081,0.051,0.147,0.121,0.204,0.191l0.541,0.508v-3.846h1.487V125.503z M118.23,107.849h-1.723V75.616h1.723V107.849z
		 M127.195,120.528l-0.43-0.418c-0.657-0.637-1.336-0.637-1.557-0.637c-1.213,0-2.029,0.883-2.029,2.188
		c0,1.225,0.854,2.117,2.029,2.117c0.559,0,1.079-0.229,1.557-0.676l0.43-0.41v1.922l-0.131,0.07c-0.256,0.152-0.889,0.52-1.87,0.52
		c-0.949,0-1.771-0.32-2.446-0.951c-0.729-0.703-1.094-1.57-1.094-2.592c0-1.068,0.387-2.021,1.094-2.676
		c0.657-0.637,1.444-0.932,2.479-0.932c0.748,0,1.321,0.162,1.853,0.52l0.116,0.078V120.528z M136.564,119.604h-2.546v1.02h2.461
		v1.412h-2.461v1.623h2.546v1.41h-4.036v-6.893h4.036V119.604z M143.862,125.2c-0.686,0-1.259-0.246-1.69-0.736
		c-0.229-0.264-0.524-0.717-0.591-1.379l-0.024-0.227l1.49-0.33l0.004,0.316c0.003,0.244,0.088,0.492,0.221,0.646
		c0.148,0.207,0.324,0.291,0.608,0.291c0.605,0,0.816-0.422,0.816-0.813c0-0.465-0.366-0.688-0.771-0.859l-0.602-0.26
		c-0.629-0.277-1.459-0.764-1.459-1.85c0-1.111,0.918-1.939,2.131-1.939c0.604,0,1.076,0.16,1.438,0.498
		c0.221,0.188,0.418,0.443,0.548,0.727l0.099,0.217l-1.252,0.727l-0.105-0.285c-0.045-0.121-0.112-0.211-0.214-0.305
		c-0.138-0.119-0.264-0.166-0.5-0.166c-0.313,0-0.643,0.131-0.643,0.504c0,0.234,0.154,0.41,0.517,0.559l0.633,0.242
		c0.418,0.168,1.688,0.688,1.688,2.119C146.204,124.235,145.224,125.2,143.862,125.2z M138.561,107.767
		c-6.061,0-10.996-4.979-10.996-11.183c0-6.184,4.936-11.162,10.996-11.162c6.065,0,11.001,4.978,11.001,11.162
		C149.562,102.788,144.626,107.767,138.561,107.767z"/>
</g>
</svg>
